# xmcd
#
# Track frame offsets:
#	150
#	9008
#	16872
#	32042
#	45035
#	59830
#	73477
#	86358
#	96009
#	106218
#	125972
#	134418
#	144613
#	156040
#	172932
#
# Disc length: 2503 seconds
#
# Revision: 0
# Processed by: cddbd v1.5.2PL0 Copyright (c) Steve Scherf et al.
# Submitted via: EZCDAudioConverter 1.2.5.1
#
DISCID=c109c50f
DTITLE=Joe Meadows - Cotton Eyed Joe
DYEAR=2001
DGENRE=
TTITLE0=Cotton Eyed Joe
TTITLE1=Sally Gardens
TTITLE2=Indian Springs
TTITLE3=Chinkypin
TTITLE4=South Wind
TTITLE5=Battle of Bull Run
TTITLE6=Turkey Knob
TTITLE7=Citico
TTITLE8=Herman's Rag
TTITLE9=Paddy on the Turnpike
TTITLE10=Southern Aristocracy
TTITLE11=Trot Along My Honey
TTITLE12=Runnin' Bear
TTITLE13=Kansas City Railroad Blues
TTITLE14=Cruel Willie
EXTD=
EXTT0=
EXTT1=
EXTT2=
EXTT3=
EXTT4=
EXTT5=
EXTT6=
EXTT7=
EXTT8=
EXTT9=
EXTT10=
EXTT11=
EXTT12=
EXTT13=
EXTT14=
PLAYORDER=
